<svg width="20" height="21" viewBox="0 0 20 21" fill="none" xmlns="http://www.w3.org/2000/svg">
<path d="M1.08975 18.1433C0.616604 18.646 0.640577 19.4371 1.14329 19.9102C1.64601 20.3834 2.4371 20.3594 2.91025 19.8567L1.08975 18.1433ZM19.2494 1.96214C19.2285 1.2721 18.6522 0.729664 17.9621 0.750573L6.7173 1.09133C6.02726 1.11224 5.48483 1.68858 5.50574 2.37861C5.52665 3.06865 6.10298 3.61109 6.79302 3.59018L16.7884 3.28729L17.0913 13.2827C17.1122 13.9727 17.6886 14.5152 18.3786 14.4943C19.0687 14.4734 19.6111 13.897 19.5902 13.207L19.2494 1.96214ZM2.91025 19.8567L18.9102 2.85671L17.0897 1.14329L1.08975 18.1433L2.91025 19.8567Z" fill="#2D2D2D"/>
</svg>
