<svg width="636" height="140" viewBox="0 0 636 140" fill="none" xmlns="http://www.w3.org/2000/svg">
<g clip-path="url(#clip0_648_5161)">
<path d="M124 0H16C7.16344 0 0 7.16344 0 16V124C0 132.837 7.16344 140 16 140H124C132.837 140 140 132.837 140 124V16C140 7.16344 132.837 0 124 0Z" fill="#FCB731"/>
<mask id="mask0_648_5161" style="mask-type:luminance" maskUnits="userSpaceOnUse" x="23" y="16" width="94" height="108">
<path d="M116.356 16.3333H23.3335V123.666H116.356V16.3333Z" fill="white"/>
</mask>
<g mask="url(#mask0_648_5161)">
<path d="M114.633 41.9383L71.4738 16.7821C70.4479 16.1837 69.1801 16.1837 68.1542 16.7821L24.9946 41.9383C23.9687 42.5367 23.3335 43.645 23.3335 44.8417V95.1569C23.3335 96.3537 23.966 97.4619 24.9946 98.0603L68.1542 123.217C69.1801 123.815 70.4479 123.815 71.4738 123.217L114.633 98.0603C115.659 97.4619 116.294 96.3537 116.294 95.1569V44.8417C116.294 43.6423 115.662 42.5367 114.633 41.9383ZM43.2695 90.7079V49.2907C43.2695 47.9088 44.2396 46.2102 45.4249 45.5206L67.6705 32.5521C68.8559 31.8598 69.826 32.4259 69.826 33.8079V75.2251C69.826 76.607 68.8559 78.3056 67.6705 78.9952L45.4249 91.9637C44.2422 92.656 43.2695 92.0898 43.2695 90.7079ZM94.2324 94.478L78.6073 103.585C77.4219 104.278 75.4817 104.275 74.2964 103.583L58.7058 94.478C57.5205 93.7857 57.5205 92.6533 58.7058 91.9637L74.3123 82.8672C75.4977 82.1749 76.4678 80.4791 76.4678 79.0971V60.9015C76.4678 59.5196 77.4379 58.9534 78.6232 59.6457L94.2297 68.7422C95.4151 69.4345 96.3851 71.1303 96.3851 72.5122V90.7079C96.3905 92.0898 95.4177 93.7857 94.2324 94.478Z" fill="black"/>
</g>
<path d="M633.968 68.6797L618.734 69.6172C618.473 68.3151 617.913 67.1432 617.054 66.1016C616.195 65.0339 615.062 64.1875 613.656 63.5625C612.275 62.9115 610.622 62.5859 608.695 62.5859C606.117 62.5859 603.942 63.1328 602.171 64.2266C600.4 65.2943 599.515 66.7266 599.515 68.5234C599.515 69.9557 600.088 71.1667 601.234 72.1562C602.38 73.1458 604.346 73.9401 607.132 74.5391L617.992 76.7266C623.825 77.9245 628.174 79.8516 631.038 82.5078C633.903 85.1641 635.335 88.6536 635.335 92.9766C635.335 96.9089 634.176 100.359 631.859 103.328C629.567 106.297 626.416 108.615 622.406 110.281C618.421 111.922 613.825 112.742 608.617 112.742C600.674 112.742 594.346 111.089 589.632 107.781C584.945 104.448 582.197 99.9167 581.39 94.1875L597.757 93.3281C598.252 95.75 599.45 97.599 601.351 98.875C603.252 100.125 605.687 100.75 608.656 100.75C611.572 100.75 613.916 100.19 615.687 99.0703C617.484 97.9245 618.395 96.4531 618.421 94.6562C618.395 93.1458 617.757 91.9089 616.507 90.9453C615.257 89.9557 613.33 89.2005 610.726 88.6797L600.335 86.6094C594.476 85.4375 590.114 83.4062 587.249 80.5156C584.411 77.625 582.992 73.9401 582.992 69.4609C582.992 65.6068 584.033 62.2865 586.117 59.5C588.226 56.7135 591.182 54.5651 594.984 53.0547C598.812 51.5443 603.291 50.7891 608.421 50.7891C615.999 50.7891 621.963 52.3906 626.312 55.5937C630.687 58.7969 633.239 63.1589 633.968 68.6797Z" fill="black"/>
<path d="M548.245 112.742C542.099 112.742 536.813 111.44 532.386 108.836C527.985 106.206 524.599 102.56 522.229 97.8984C519.886 93.237 518.714 87.8724 518.714 81.8047C518.714 75.6589 519.899 70.2682 522.269 65.6328C524.664 60.9714 528.063 57.3385 532.464 54.7344C536.865 52.1042 542.099 50.7891 548.167 50.7891C553.401 50.7891 557.985 51.7396 561.917 53.6406C565.849 55.5417 568.961 58.2109 571.253 61.6484C573.545 65.0859 574.808 69.1224 575.042 73.7578H559.339C558.896 70.763 557.724 68.3542 555.823 66.5312C553.948 64.6823 551.487 63.7578 548.44 63.7578C545.862 63.7578 543.61 64.4609 541.683 65.8672C539.782 67.2474 538.297 69.2656 537.229 71.9219C536.162 74.5781 535.628 77.7943 535.628 81.5703C535.628 85.3984 536.149 88.6536 537.19 91.3359C538.258 94.0182 539.756 96.0625 541.683 97.4688C543.61 98.875 545.862 99.5781 548.44 99.5781C550.341 99.5781 552.047 99.1875 553.558 98.4062C555.094 97.625 556.357 96.4922 557.347 95.0078C558.362 93.4974 559.026 91.6875 559.339 89.5781H575.042C574.782 94.1615 573.532 98.1979 571.292 101.688C569.078 105.151 566.019 107.859 562.112 109.812C558.206 111.766 553.584 112.742 548.245 112.742Z" fill="black"/>
<path d="M492.815 111.57V51.5703H509.456V111.57H492.815ZM501.174 43.8359C498.7 43.8359 496.578 43.0156 494.807 41.375C493.062 39.7083 492.19 37.7161 492.19 35.3984C492.19 33.1068 493.062 31.1406 494.807 29.5C496.578 27.8333 498.7 27 501.174 27C503.648 27 505.758 27.8333 507.503 29.5C509.273 31.1406 510.159 33.1068 510.159 35.3984C510.159 37.7161 509.273 39.7083 507.503 41.375C505.758 43.0156 503.648 43.8359 501.174 43.8359Z" fill="black"/>
<path d="M483.625 51.5703V64.0703H447.492V51.5703H483.625ZM455.696 37.1953H472.336V93.1328C472.336 94.6693 472.571 95.8672 473.039 96.7266C473.508 97.5599 474.159 98.1458 474.992 98.4844C475.852 98.8229 476.841 98.9922 477.961 98.9922C478.742 98.9922 479.524 98.9271 480.305 98.7969C481.086 98.6406 481.685 98.5234 482.102 98.4453L484.719 110.828C483.886 111.089 482.714 111.388 481.203 111.727C479.693 112.091 477.857 112.313 475.696 112.391C471.685 112.547 468.17 112.013 465.149 110.789C462.154 109.565 459.823 107.664 458.156 105.086C456.49 102.508 455.67 99.2526 455.696 95.3203V37.1953Z" fill="black"/>
<path d="M414.963 112.742C408.791 112.742 403.478 111.492 399.025 108.992C394.598 106.466 391.187 102.898 388.791 98.2891C386.395 93.6536 385.197 88.1719 385.197 81.8437C385.197 75.6719 386.395 70.2552 388.791 65.5938C391.187 60.9323 394.559 57.2995 398.908 54.6953C403.283 52.0911 408.413 50.7891 414.299 50.7891C418.257 50.7891 421.942 51.4271 425.353 52.7031C428.791 53.9531 431.786 55.8411 434.338 58.3672C436.916 60.8932 438.921 64.0703 440.353 67.8984C441.786 71.7005 442.502 76.1536 442.502 81.2578V85.8281H391.838V75.5156H426.838C426.838 73.1198 426.317 70.9974 425.275 69.1484C424.233 67.2995 422.788 65.8542 420.939 64.8125C419.116 63.7448 416.994 63.2109 414.572 63.2109C412.046 63.2109 409.806 63.7969 407.853 64.9687C405.926 66.1146 404.416 67.6641 403.322 69.6172C402.228 71.5443 401.668 73.6927 401.642 76.0625V85.8672C401.642 88.8359 402.189 91.401 403.283 93.5625C404.403 95.724 405.978 97.3906 408.01 98.5625C410.041 99.7344 412.45 100.32 415.236 100.32C417.085 100.32 418.778 100.06 420.314 99.5391C421.851 99.0182 423.166 98.237 424.26 97.1953C425.353 96.1536 426.187 94.8776 426.76 93.3672L442.15 94.3828C441.369 98.0807 439.767 101.31 437.345 104.07C434.95 106.805 431.851 108.94 428.049 110.477C424.273 111.987 419.911 112.742 414.963 112.742Z" fill="black"/>
<path d="M337.482 76.8828V111.57H320.841V51.5703H336.701V62.1562H337.404C338.732 58.6667 340.958 55.9062 344.083 53.875C347.208 51.8177 350.997 50.7891 355.451 50.7891C359.617 50.7891 363.25 51.7005 366.349 53.5234C369.448 55.3464 371.857 57.9505 373.576 61.3359C375.294 64.6953 376.154 68.7057 376.154 73.3672V111.57H359.513V76.3359C359.539 72.6641 358.602 69.7995 356.701 67.7422C354.8 65.6589 352.182 64.6172 348.849 64.6172C346.609 64.6172 344.63 65.099 342.911 66.0625C341.219 67.026 339.891 68.4323 338.927 70.2812C337.99 72.1042 337.508 74.3047 337.482 76.8828Z" fill="black"/>
<path d="M284.093 112.742C277.921 112.742 272.608 111.492 268.155 108.992C263.728 106.466 260.317 102.898 257.921 98.2891C255.525 93.6536 254.327 88.1719 254.327 81.8437C254.327 75.6719 255.525 70.2552 257.921 65.5938C260.317 60.9323 263.689 57.2995 268.038 54.6953C272.413 52.0911 277.543 50.7891 283.429 50.7891C287.387 50.7891 291.072 51.4271 294.483 52.7031C297.921 53.9531 300.916 55.8411 303.468 58.3672C306.046 60.8932 308.051 64.0703 309.483 67.8984C310.916 71.7005 311.632 76.1536 311.632 81.2578V85.8281H260.968V75.5156H295.968C295.968 73.1198 295.447 70.9974 294.405 69.1484C293.364 67.2995 291.918 65.8542 290.069 64.8125C288.246 63.7448 286.124 63.2109 283.702 63.2109C281.176 63.2109 278.937 63.7969 276.983 64.9687C275.056 66.1146 273.546 67.6641 272.452 69.6172C271.358 71.5443 270.799 73.6927 270.772 76.0625V85.8672C270.772 88.8359 271.319 91.401 272.413 93.5625C273.533 95.724 275.108 97.3906 277.14 98.5625C279.171 99.7344 281.58 100.32 284.366 100.32C286.215 100.32 287.908 100.06 289.444 99.5391C290.981 99.0182 292.296 98.237 293.39 97.1953C294.483 96.1536 295.317 94.8776 295.89 93.3672L311.28 94.3828C310.499 98.0807 308.897 101.31 306.476 104.07C304.08 106.805 300.981 108.94 297.179 110.477C293.403 111.987 289.041 112.742 284.093 112.742Z" fill="black"/>
<path d="M188.78 111.57V31.5703H205.421V61.6484H205.928C206.658 60.0339 207.712 58.3932 209.092 56.7266C210.499 55.0339 212.322 53.6276 214.561 52.5078C216.827 51.362 219.639 50.7891 222.999 50.7891C227.374 50.7891 231.41 51.9349 235.108 54.2266C238.806 56.4922 241.762 59.9167 243.975 64.5C246.189 69.0573 247.296 74.7734 247.296 81.6484C247.296 88.3412 246.215 93.9922 244.053 98.6016C241.918 103.185 239.001 106.661 235.303 109.031C231.631 111.375 227.517 112.547 222.96 112.547C219.73 112.547 216.983 112.013 214.717 110.945C212.478 109.878 210.642 108.536 209.21 106.922C207.777 105.281 206.684 103.628 205.928 101.961H205.186V111.57H188.78ZM205.069 81.5703C205.069 85.138 205.564 88.25 206.553 90.9063C207.543 93.5625 208.975 95.6328 210.85 97.1172C212.725 98.5755 215.004 99.3047 217.686 99.3047C220.394 99.3047 222.686 98.5625 224.561 97.0781C226.436 95.5677 227.855 93.4844 228.819 90.8281C229.809 88.1458 230.303 85.0599 230.303 81.5703C230.303 78.1068 229.822 75.0599 228.858 72.4297C227.894 69.7995 226.475 67.7422 224.6 66.2578C222.725 64.7734 220.421 64.0312 217.686 64.0312C214.978 64.0312 212.686 64.7474 210.811 66.1797C208.962 67.612 207.543 69.6432 206.553 72.2734C205.564 74.9036 205.069 78.0026 205.069 81.5703Z" fill="black"/>
</g>
<defs>
<clipPath id="clip0_648_5161">
<rect width="636" height="140" fill="white"/>
</clipPath>
</defs>
</svg>
