<svg width="360" height="164" viewBox="0 0 360 164" fill="none" xmlns="http://www.w3.org/2000/svg">
<g clip-path="url(#clip0_922_3172)">
<mask id="mask0_922_3172" style="mask-type:luminance" maskUnits="userSpaceOnUse" x="64" y="52" width="231" height="61">
<path d="M295 52H64V112.448H295V52Z" fill="white"/>
</mask>
<g mask="url(#mask0_922_3172)">
<path d="M86.1368 86.6852L88.7194 75.9527C89.5867 72.5485 90.4823 67.6088 91.3638 64.0725H91.54C92.4744 67.6106 93.6079 72.5044 94.5211 75.8839L97.303 86.6746L86.1368 86.6852ZM99.5084 98.5442L103.336 112.445H120.69L102.801 52.4673H81.3981L64 112.445H80.6206L84.0019 98.5389L99.5084 98.5442Z" fill="#636C74"/>
<path d="M164.204 88.2648H142.646V99.3217H166.741V112.445H126.582V52.4673H165.495V65.5938H142.646V75.2722H164.204V88.2648Z" fill="#636C74"/>
<path d="M194.328 64.4818C195.897 64.1863 197.492 64.0592 199.088 64.1028C205.207 64.1028 208.165 67.1279 208.165 71.6004C208.165 76.7622 204.25 79.9883 197.998 79.9883C196.771 80.0214 195.543 79.9471 194.328 79.7662V64.4818ZM178.398 112.449H194.305V92.0924C195.284 92.1594 196.664 92.2933 198.243 92.2933C206.342 92.2933 213.373 90.3542 218.222 86.0192C220.181 84.1026 221.712 81.7941 222.717 79.2446C223.721 76.6951 224.176 73.9622 224.051 71.2249C224.113 68.4531 223.528 65.705 222.342 63.1987C221.157 60.6924 219.403 58.497 217.221 56.7868C213.017 53.5571 206.832 52.0005 198.199 52.0005C191.583 51.9042 184.969 52.3357 178.421 53.2909L178.398 112.449Z" fill="#636C74"/>
<path d="M231.975 52.4673H248.038V98.9885H271.132V112.445H231.975V52.4673Z" fill="#636C74"/>
<path d="M294.999 52.4673H278.936V112.448H294.999V52.4673Z" fill="#636C74"/>
</g>
</g>
<defs>
<clipPath id="clip0_922_3172">
<rect width="231" height="60.4481" fill="white" transform="translate(64 52)"/>
</clipPath>
</defs>
</svg>
