<svg width="32" height="32" viewBox="0 0 32 32" fill="none" xmlns="http://www.w3.org/2000/svg">
<g clip-path="url(#clip0_648_5176)">
<path d="M28.3429 0H3.65714C1.63736 0 0 1.63736 0 3.65714V28.3429C0 30.3626 1.63736 32 3.65714 32H28.3429C30.3626 32 32 30.3626 32 28.3429V3.65714C32 1.63736 30.3626 0 28.3429 0Z" fill="#FCB731"/>
<mask id="mask0_648_5176" style="mask-type:luminance" maskUnits="userSpaceOnUse" x="5" y="3" width="22" height="26">
<path d="M26.5962 3.73331H5.33398V28.2666H26.5962V3.73331Z" fill="white"/>
</mask>
<g mask="url(#mask0_648_5176)">
<path d="M26.2025 9.58588L16.3375 3.83589C16.103 3.69911 15.8132 3.69911 15.5787 3.83589L5.71366 9.58588C5.47917 9.72266 5.33398 9.97598 5.33398 10.2495V21.7501C5.33398 22.0237 5.47856 22.277 5.71366 22.4138L15.5787 28.1639C15.8132 28.3006 16.103 28.3006 16.3375 28.1639L26.2025 22.4138C26.437 22.277 26.5821 22.0237 26.5821 21.7501V10.2495C26.5821 9.97536 26.4377 9.72266 26.2025 9.58588ZM9.89078 20.7332V11.2664C9.89078 10.9506 10.1125 10.5623 10.3834 10.4047L15.4682 7.44046C15.7391 7.28222 15.9608 7.41162 15.9608 7.7275V17.1943C15.9608 17.5102 15.7391 17.8984 15.4682 18.056L10.3834 21.0203C10.1131 21.1785 9.89078 21.0491 9.89078 20.7332ZM21.5394 21.595L17.968 23.6766C17.697 23.835 17.2536 23.8343 16.9826 23.6761L13.4191 21.595C13.1482 21.4367 13.1482 21.1779 13.4191 21.0203L16.9863 18.9411C17.2572 18.7828 17.479 18.3952 17.479 18.0793V13.9203C17.479 13.6045 17.7007 13.475 17.9716 13.6333L21.5388 15.7125C21.8098 15.8707 22.0315 16.2583 22.0315 16.5742V20.7332C22.0327 21.0491 21.8104 21.4367 21.5394 21.595Z" fill="black"/>
</g>
</g>
<defs>
<clipPath id="clip0_648_5176">
<rect width="32" height="32" rx="3.88571" fill="white"/>
</clipPath>
</defs>
</svg>
