<svg width="714" height="757" viewBox="0 0 714 757" fill="none" xmlns="http://www.w3.org/2000/svg">
<path d="M379.888 544.95L15.3018 772.923C8.64137 777.087 0 772.299 0 764.444V83.0113C0 79.4541 1.88964 76.1647 4.96253 74.3728L369.548 -138.231C376.215 -142.119 384.586 -137.31 384.586 -129.593V536.471C384.586 539.918 382.81 543.122 379.888 544.95Z" fill="#FDD78C" fill-opacity="0.65"/>
<path d="M494.467 587.131V296.669C494.467 288.898 502.943 284.097 509.608 288.092L775.12 447.231C778.135 449.038 779.979 452.294 779.979 455.809V775.204C779.979 778.621 778.235 781.801 775.353 783.637L499.902 959.162C496.592 961.27 492.356 961.249 489.068 959.107L227.9 788.926C221.902 785.018 221.833 776.258 227.769 772.256L490.057 595.423C492.814 593.564 494.467 590.456 494.467 587.131Z" fill="#FDD78C" fill-opacity="0.65"/>
</svg>
